<?xml version="1.0" encoding="UTF-8" standalone="no"?>
<svg
   xmlns:dc="http://purl.org/dc/elements/1.1/"
   xmlns:cc="http://creativecommons.org/ns#"
   xmlns:rdf="http://www.w3.org/1999/02/22-rdf-syntax-ns#"
   xmlns:svg="http://www.w3.org/2000/svg"
   xmlns="http://www.w3.org/2000/svg"
   xmlns:sodipodi="http://sodipodi.sourceforge.net/DTD/sodipodi-0.dtd"
   xmlns:inkscape="http://www.inkscape.org/namespaces/inkscape"
   version="1.1"
   width="24"
   height="24"
   viewBox="0 0 24 24"
   id="svg4"
   sodipodi:docname="compass.svg"
   inkscape:version="0.92.4 (5da689c313, 2019-01-14)"
   inkscape:export-filename="D:\Downloads\compass.png"
   inkscape:export-xdpi="512"
   inkscape:export-ydpi="512">
  <metadata
     id="metadata10">
    <rdf:RDF>
      <cc:Work
         rdf:about="">
        <dc:format>image/svg+xml</dc:format>
        <dc:type
           rdf:resource="http://purl.org/dc/dcmitype/StillImage" />
        <dc:title></dc:title>
      </cc:Work>
    </rdf:RDF>
  </metadata>
  <defs
     id="defs8" />
  <sodipodi:namedview
     pagecolor="#ffffff"
     bordercolor="#666666"
     borderopacity="1"
     objecttolerance="10"
     gridtolerance="10"
     guidetolerance="10"
     inkscape:pageopacity="0"
     inkscape:pageshadow="2"
     inkscape:window-width="1255"
     inkscape:window-height="823"
     id="namedview6"
     showgrid="false"
     inkscape:zoom="13.906433"
     inkscape:cx="13.519446"
     inkscape:cy="12.704769"
     inkscape:window-x="168"
     inkscape:window-y="55"
     inkscape:window-maximized="0"
     inkscape:current-layer="svg4" />
  <path
     d="M 13.684135,10.315865 12,5.2634603 10.315865,10.315865 5.2634603,12 10.315865,13.684135 12,18.73654 13.684135,13.684135 18.73654,12 13.684135,10.315865 M 7.5089735,12 10.877244,10.877244 11.438621,12 H 7.5089735 M 12,16.491027 10.877244,13.122756 12,12.561379 v 3.929648 M 12,7.5089735 13.122756,10.877244 12,11.438621 V 7.5089735 M 13.122756,13.122756 12.561379,12 h 3.929648 l -3.368271,1.122756 m -2.975304,1.852549 -2.0771002,0.954343 0.9543431,-2.0771 0.8982051,0.280689 0.224552,0.842068 m 4.827853,-1.122757 0.954343,2.0771 -2.0771,-0.954343 0.280689,-0.898205 0.842068,-0.224552 M 9.0246949,10.147452 8.0703518,8.0703518 10.147452,9.0246949 9.8667626,9.8667626 9.0246949,10.147452 M 13.852548,9.0246949 15.929648,8.0703518 14.975305,10.147452 14.0771,9.8667626 Z"
     id="path2"
     inkscape:connector-curvature="0"
     style="stroke-width:0.5613783" />
  <path
     id="path3715"
     d="m 10.606154,0 v 4.6461544 h 0.929231 V 2.3230773 l 0.929231,2.3230771 h 0.92923 V 0 h -0.92923 V 2.3230773 L 11.535385,0 Z"
     inkscape:connector-curvature="0"
     style="stroke-width:0.4646154" />
  <path
     id="path3726"
     d="m 12.464615,24 a 0.92923082,0.92923082 0 0 0 0.929231,-0.929231 v -0.929231 a 0.92923082,0.92923082 0 0 0 -0.929231,-0.929231 h -0.929231 v -0.929231 h 1.858462 v -0.929231 h -1.858462 a 0.92923082,0.92923082 0 0 0 -0.92923,0.929231 v 0.929231 a 0.92923082,0.92923082 0 0 0 0.92923,0.929231 h 0.929231 v 0.929231 H 10.606154 V 24 Z"
     inkscape:connector-curvature="0"
     style="stroke-width:0.4646154" />
  <path
     id="path3737"
     d="m 24,10.606154 h -4.646155 v 2.787692 h 0.929231 v -1.858462 h 0.929231 v 1.858462 h 0.929231 v -1.858462 h 0.929231 v 1.858462 H 24 Z"
     inkscape:connector-curvature="0"
     style="stroke-width:0.4646154" />
  <path
     id="path3748"
     d="m 4.6461535,13.393847 a 0.92923082,0.92923082 0 0 1 -0.929231,0.92923 H 0 v -0.92923 H 3.7169225 V 12.464616 H 0.4646149 V 11.535385 H 3.7169225 V 10.606154 H 0 V 9.6769231 h 3.7169225 a 0.92923082,0.92923082 0 0 1 0.929231,0.9292309 z"
     inkscape:connector-curvature="0"
     style="stroke-width:0.4646154" />
</svg>
