# Blender v2.92.0 OBJ File: 'rotate_axis_mesh.blend'
# www.blender.org
o Torus.001
v 1.100000 0.000000 0.000000
v 1.070711 0.070711 0.000000
v 1.000000 0.100000 0.000000
v 0.929289 0.070711 0.000000
v 0.900000 0.000000 0.000000
v 0.929289 -0.070711 -0.000000
v 1.000000 -0.100000 -0.000000
v 1.070711 -0.070711 -0.000000
v 1.016268 0.000000 -0.420952
v 0.989208 0.070711 -0.409743
v 0.923880 0.100000 -0.382683
v 0.858551 0.070711 -0.355624
v 0.831492 0.000000 -0.344415
v 0.858551 -0.070711 -0.355624
v 0.923880 -0.100000 -0.382683
v 0.989208 -0.070711 -0.409743
v 0.777817 0.000000 -0.777818
v 0.757107 0.070711 -0.757107
v 0.707107 0.100000 -0.707107
v 0.657107 0.070711 -0.657107
v 0.636396 0.000000 -0.636396
v 0.657107 -0.070711 -0.657107
v 0.707107 -0.100000 -0.707107
v 0.757107 -0.070711 -0.757107
v 0.420952 0.000000 -1.016267
v 0.409743 0.070711 -0.989208
v 0.382684 0.100000 -0.923879
v 0.355624 0.070711 -0.858551
v 0.344415 0.000000 -0.831491
v 0.355624 -0.070711 -0.858551
v 0.382684 -0.100000 -0.923879
v 0.409743 -0.070711 -0.989208
v 0.000000 0.000000 -1.100000
v 0.000000 0.070711 -1.070711
v 0.000000 0.100000 -1.000000
v 0.000000 0.070711 -0.929289
v 0.000000 0.000000 -0.900000
v 0.000000 -0.070711 -0.929289
v 0.000000 -0.100000 -1.000000
v 0.000000 -0.070711 -1.070711
v -0.420952 0.000000 -1.016267
v -0.409743 0.070711 -0.989208
v -0.382684 0.100000 -0.923880
v -0.355624 0.070711 -0.858551
v -0.344415 0.000000 -0.831492
v -0.355624 -0.070711 -0.858551
v -0.382684 -0.100000 -0.923880
v -0.409743 -0.070711 -0.989208
v -0.777818 0.000000 -0.777817
v -0.757107 0.070711 -0.757107
v -0.707107 0.100000 -0.707107
v -0.657107 0.070711 -0.657107
v -0.636396 0.000000 -0.636396
v -0.657107 -0.070711 -0.657107
v -0.707107 -0.100000 -0.707107
v -0.757107 -0.070711 -0.757107
v -1.016267 0.000000 -0.420952
v -0.989208 0.070711 -0.409743
v -0.923880 0.100000 -0.382683
v -0.858551 0.070711 -0.355624
v -0.831492 0.000000 -0.344415
v -0.858551 -0.070711 -0.355624
v -0.923880 -0.100000 -0.382683
v -0.989208 -0.070711 -0.409743
v -1.100000 0.000000 -0.000000
v -1.070711 0.070711 -0.000000
v -1.000000 0.100000 -0.000000
v -0.929289 0.070711 -0.000000
v -0.900000 0.000000 -0.000000
v -0.929289 -0.070711 -0.000000
v -1.000000 -0.100000 -0.000000
v -1.070711 -0.070711 -0.000000
v -1.016268 -0.000000 0.420951
v -0.989208 0.070711 0.409743
v -0.923880 0.100000 0.382683
v -0.858552 0.070711 0.355623
v -0.831492 -0.000000 0.344415
v -0.858552 -0.070711 0.355623
v -0.923880 -0.100000 0.382683
v -0.989208 -0.070711 0.409743
v -0.777818 -0.000000 0.777817
v -0.757107 0.070711 0.757107
v -0.707107 0.100000 0.707107
v -0.657107 0.070711 0.657107
v -0.636396 -0.000000 0.636396
v -0.657107 -0.070711 0.657107
v -0.707107 -0.100000 0.707107
v -0.757107 -0.070711 0.757107
v -0.420952 -0.000000 1.016267
v -0.409743 0.070711 0.989208
v -0.382684 0.100000 0.923880
v -0.355624 0.070711 0.858551
v -0.344415 -0.000000 0.831492
v -0.355624 -0.070711 0.858551
v -0.382684 -0.100000 0.923880
v -0.409743 -0.070711 0.989208
v 0.000000 -0.000000 1.100000
v 0.000000 0.070711 1.070711
v 0.000000 0.100000 1.000000
v 0.000000 0.070711 0.929289
v 0.000000 -0.000000 0.900000
v 0.000000 -0.070711 0.929289
v 0.000000 -0.100000 1.000000
v 0.000000 -0.070711 1.070711
v 0.420952 -0.000000 1.016267
v 0.409743 0.070711 0.989208
v 0.382684 0.100000 0.923879
v 0.355624 0.070711 0.858551
v 0.344415 -0.000000 0.831491
v 0.355624 -0.070711 0.858551
v 0.382684 -0.100000 0.923879
v 0.409743 -0.070711 0.989208
v 0.777817 -0.000000 0.777818
v 0.757106 0.070711 0.757107
v 0.707106 0.100000 0.707107
v 0.657106 0.070711 0.657107
v 0.636396 -0.000000 0.636396
v 0.657106 -0.070711 0.657107
v 0.707106 -0.100000 0.707107
v 0.757106 -0.070711 0.757107
v 1.016267 -0.000000 0.420952
v 0.989208 0.070711 0.409744
v 0.923879 0.100000 0.382684
v 0.858551 0.070711 0.355624
v 0.831491 -0.000000 0.344415
v 0.858551 -0.070711 0.355624
v 0.923879 -0.100000 0.382684
v 0.989208 -0.070711 0.409744
vn 0.9087 0.3764 -0.1807
vn 0.3816 0.9212 -0.0759
vn -0.3816 0.9212 0.0759
vn -0.9087 0.3764 0.1807
vn -0.9087 -0.3764 0.1807
vn -0.3816 -0.9212 0.0759
vn 0.3816 -0.9212 -0.0759
vn 0.9087 -0.3764 -0.1807
vn 0.7703 0.3764 -0.5147
vn 0.3235 0.9212 -0.2161
vn -0.3235 0.9212 0.2161
vn -0.7703 0.3764 0.5147
vn -0.7703 -0.3764 0.5147
vn -0.3235 -0.9212 0.2161
vn 0.3235 -0.9212 -0.2161
vn 0.7703 -0.3764 -0.5147
vn 0.5147 0.3764 -0.7703
vn 0.2161 0.9212 -0.3235
vn -0.2161 0.9212 0.3235
vn -0.5147 0.3764 0.7703
vn -0.5147 -0.3764 0.7703
vn -0.2161 -0.9212 0.3235
vn 0.2161 -0.9212 -0.3235
vn 0.5147 -0.3764 -0.7703
vn 0.1807 0.3764 -0.9087
vn 0.0759 0.9212 -0.3816
vn -0.0759 0.9212 0.3816
vn -0.1807 0.3764 0.9087
vn -0.1807 -0.3764 0.9087
vn -0.0759 -0.9212 0.3816
vn 0.0759 -0.9212 -0.3816
vn 0.1807 -0.3764 -0.9087
vn -0.1807 0.3764 -0.9087
vn -0.0759 0.9212 -0.3816
vn 0.0759 0.9212 0.3816
vn 0.1807 0.3764 0.9087
vn 0.1807 -0.3764 0.9087
vn 0.0759 -0.9212 0.3816
vn -0.0759 -0.9212 -0.3816
vn -0.1807 -0.3764 -0.9087
vn -0.5147 0.3764 -0.7703
vn -0.2161 0.9212 -0.3235
vn 0.2161 0.9212 0.3235
vn 0.5147 0.3764 0.7703
vn 0.5147 -0.3764 0.7703
vn 0.2161 -0.9212 0.3235
vn -0.2161 -0.9212 -0.3235
vn -0.5147 -0.3764 -0.7703
vn -0.7703 0.3764 -0.5147
vn -0.3235 0.9212 -0.2161
vn 0.3235 0.9212 0.2161
vn 0.7703 0.3764 0.5147
vn 0.7703 -0.3764 0.5147
vn 0.3235 -0.9212 0.2161
vn -0.3235 -0.9212 -0.2161
vn -0.7703 -0.3764 -0.5147
vn -0.9087 0.3764 -0.1807
vn -0.3816 0.9212 -0.0759
vn 0.3816 0.9212 0.0759
vn 0.9087 0.3764 0.1807
vn 0.9087 -0.3764 0.1807
vn 0.3816 -0.9212 0.0759
vn -0.3816 -0.9212 -0.0759
vn -0.9087 -0.3764 -0.1807
s off
f 1//1 9//1 10//1 2//1
f 2//2 10//2 11//2 3//2
f 3//3 11//3 12//3 4//3
f 4//4 12//4 13//4 5//4
f 5//5 13//5 14//5 6//5
f 6//6 14//6 15//6 7//6
f 7//7 15//7 16//7 8//7
f 8//8 16//8 9//8 1//8
f 9//9 17//9 18//9 10//9
f 10//10 18//10 19//10 11//10
f 11//11 19//11 20//11 12//11
f 12//12 20//12 21//12 13//12
f 13//13 21//13 22//13 14//13
f 14//14 22//14 23//14 15//14
f 15//15 23//15 24//15 16//15
f 16//16 24//16 17//16 9//16
f 17//17 25//17 26//17 18//17
f 18//18 26//18 27//18 19//18
f 19//19 27//19 28//19 20//19
f 20//20 28//20 29//20 21//20
f 21//21 29//21 30//21 22//21
f 22//22 30//22 31//22 23//22
f 23//23 31//23 32//23 24//23
f 24//24 32//24 25//24 17//24
f 25//25 33//25 34//25 26//25
f 26//26 34//26 35//26 27//26
f 27//27 35//27 36//27 28//27
f 28//28 36//28 37//28 29//28
f 29//29 37//29 38//29 30//29
f 30//30 38//30 39//30 31//30
f 31//31 39//31 40//31 32//31
f 32//32 40//32 33//32 25//32
f 33//33 41//33 42//33 34//33
f 34//34 42//34 43//34 35//34
f 35//35 43//35 44//35 36//35
f 36//36 44//36 45//36 37//36
f 37//37 45//37 46//37 38//37
f 38//38 46//38 47//38 39//38
f 39//39 47//39 48//39 40//39
f 40//40 48//40 41//40 33//40
f 41//41 49//41 50//41 42//41
f 42//42 50//42 51//42 43//42
f 43//43 51//43 52//43 44//43
f 44//44 52//44 53//44 45//44
f 45//45 53//45 54//45 46//45
f 46//46 54//46 55//46 47//46
f 47//47 55//47 56//47 48//47
f 48//48 56//48 49//48 41//48
f 49//49 57//49 58//49 50//49
f 50//50 58//50 59//50 51//50
f 51//51 59//51 60//51 52//51
f 52//52 60//52 61//52 53//52
f 53//53 61//53 62//53 54//53
f 54//54 62//54 63//54 55//54
f 55//55 63//55 64//55 56//55
f 56//56 64//56 57//56 49//56
f 57//57 65//57 66//57 58//57
f 58//58 66//58 67//58 59//58
f 59//59 67//59 68//59 60//59
f 60//60 68//60 69//60 61//60
f 61//61 69//61 70//61 62//61
f 62//62 70//62 71//62 63//62
f 63//63 71//63 72//63 64//63
f 64//64 72//64 65//64 57//64
f 65//4 73//4 74//4 66//4
f 66//3 74//3 75//3 67//3
f 67//2 75//2 76//2 68//2
f 68//1 76//1 77//1 69//1
f 69//8 77//8 78//8 70//8
f 70//7 78//7 79//7 71//7
f 71//6 79//6 80//6 72//6
f 72//5 80//5 73//5 65//5
f 73//12 81//12 82//12 74//12
f 74//11 82//11 83//11 75//11
f 75//10 83//10 84//10 76//10
f 76//9 84//9 85//9 77//9
f 77//16 85//16 86//16 78//16
f 78//15 86//15 87//15 79//15
f 79//14 87//14 88//14 80//14
f 80//13 88//13 81//13 73//13
f 81//20 89//20 90//20 82//20
f 82//19 90//19 91//19 83//19
f 83//18 91//18 92//18 84//18
f 84//17 92//17 93//17 85//17
f 85//24 93//24 94//24 86//24
f 86//23 94//23 95//23 87//23
f 87//22 95//22 96//22 88//22
f 88//21 96//21 89//21 81//21
f 89//28 97//28 98//28 90//28
f 90//27 98//27 99//27 91//27
f 91//26 99//26 100//26 92//26
f 92//25 100//25 101//25 93//25
f 93//32 101//32 102//32 94//32
f 94//31 102//31 103//31 95//31
f 95//30 103//30 104//30 96//30
f 96//29 104//29 97//29 89//29
f 97//36 105//36 106//36 98//36
f 98//35 106//35 107//35 99//35
f 99//34 107//34 108//34 100//34
f 100//33 108//33 109//33 101//33
f 101//40 109//40 110//40 102//40
f 102//39 110//39 111//39 103//39
f 103//38 111//38 112//38 104//38
f 104//37 112//37 105//37 97//37
f 105//44 113//44 114//44 106//44
f 106//43 114//43 115//43 107//43
f 107//42 115//42 116//42 108//42
f 108//41 116//41 117//41 109//41
f 109//48 117//48 118//48 110//48
f 110//47 118//47 119//47 111//47
f 111//46 119//46 120//46 112//46
f 112//45 120//45 113//45 105//45
f 113//52 121//52 122//52 114//52
f 114//51 122//51 123//51 115//51
f 115//50 123//50 124//50 116//50
f 116//49 124//49 125//49 117//49
f 117//56 125//56 126//56 118//56
f 118//55 126//55 127//55 119//55
f 119//54 127//54 128//54 120//54
f 120//53 128//53 121//53 113//53
f 121//60 1//60 2//60 122//60
f 122//59 2//59 3//59 123//59
f 123//58 3//58 4//58 124//58
f 124//57 4//57 5//57 125//57
f 125//64 5//64 6//64 126//64
f 126//63 6//63 7//63 127//63
f 127//62 7//62 8//62 128//62
f 128//61 8//61 1//61 121//61
